<svg xmlns="http://www.w3.org/2000/svg" viewBox="0 0 550 550" width="550" height="550" preserveAspectRatio="xMidYMid meet" style="width: 100%; height: 100%; transform: translate3d(0px, 0px, 0px);"><defs><clipPath id="__lottie_element_2"><rect width="550" height="550" x="0" y="0"></rect></clipPath><clipPath id="__lottie_element_4"><path d="M0,0 L1920,0 L1920,1080 L0,1080z"></path></clipPath><mask id="__lottie_element_13" mask-type="alpha"><g transform="matrix(1,0,0,1,960,540)" opacity="1" style="display: block;"><g opacity="1" transform="matrix(1,0,0,1,-65,40)"><path stroke-linecap="butt" stroke-linejoin="miter" fill-opacity="0" stroke-miterlimit="4" stroke="rgb(1,157,161)" stroke-opacity="1" stroke-width="45" d=" M123.1969985961914,-213.50799560546875 C195.9199981689453,-171.4239959716797 245.2010040283203,-93.25399780273438 246.47500610351562,-3.562999963760376"></path></g></g></mask><mask id="__lottie_element_22" mask-type="alpha"><g transform="matrix(1,0,0,1,960,540)" opacity="1" style="display: block;"><g opacity="1" transform="matrix(1,0,0,1,-65,40)"><path stroke-linecap="butt" stroke-linejoin="miter" fill-opacity="0" stroke-miterlimit="4" stroke="rgb(1,157,161)" stroke-opacity="1" stroke-width="45" d=" M123.1969985961914,-213.50799560546875 C195.9199981689453,-171.4239959716797 245.2010040283203,-93.25399780273438 246.47500610351562,-3.562999963760376"></path></g></g></mask></defs><g clip-path="url(#__lottie_element_2)"><g clip-path="url(#__lottie_element_4)" transform="matrix(1,0,0,1,-685,-265)" opacity="1" style="display: block;"><g transform="matrix(1,0,0,1,792.27001953125,253.864990234375)" opacity="1" style="display: block;"><g opacity="1" transform="matrix(1,0,0,1,201.54400634765625,224.82000732421875)"><path stroke-linecap="butt" stroke-linejoin="miter" fill-opacity="0" stroke-miterlimit="10" stroke="rgb(1,157,161)" stroke-opacity="1" stroke-width="2" d=" M161.7790069580078,219.82000732421875 C190.17999267578125,157.6320037841797 196.54400634765625,85.12300109863281 174.36700439453125,14.78600025177002 C126.79900360107422,-136.0800018310547 -34.0629997253418,-219.8209991455078 -184.92999267578125,-172.2530059814453 C-188.8470001220703,-171.01800537109375 -192.71800231933594,-169.70599365234375 -196.54400634765625,-168.32000732421875"></path></g></g><g transform="matrix(1,0,0,1,815.260009765625,316.95098876953125)" opacity="1" style="display: block;"><g opacity="1" transform="matrix(0.9510565400123596,-0.30901700258255005,0.30901700258255005,0.9510565400123596,82.73999786376953,264.0580139160156)"><g opacity="1" transform="matrix(-0.5807030200958252,0.8141157031059265,-0.8141157031059265,-0.5807030200958252,0,0)"><path fill="rgb(20,180,183)" fill-opacity="1" d=" M4,-261.5 C4,-261.5 4,-250.5 4,-250.5 C4,-249.4 3.1,-248.5 2,-248.5 C2,-248.5 -2,-248.5 -2,-248.5 C-3.1,-248.5 -4,-249.4 -4,-250.5 C-4,-250.5 -4,-261.5 -4,-261.5 C-4,-262.6 -3.1,-263.5 -2,-263.5 C-2,-263.5 2,-263.5 2,-263.5 C3.1,-263.5 4,-262.6 4,-261.5z"></path><g opacity="1" transform="matrix(1,0,0,1,0,-256)"></g></g><g opacity="1" transform="matrix(-0.5072376132011414,0.8618064522743225,-0.8618064522743225,-0.5072376132011414,0,0)"><path fill="rgb(20,180,183)" fill-opacity="1" d=" M4,-261.5 C4,-261.5 4,-250.5 4,-250.5 C4,-249.4 3.1,-248.5 2,-248.5 C2,-248.5 -2,-248.5 -2,-248.5 C-3.1,-248.5 -4,-249.4 -4,-250.5 C-4,-250.5 -4,-261.5 -4,-261.5 C-4,-262.6 -3.1,-263.5 -2,-263.5 C-2,-263.5 2,-263.5 2,-263.5 C3.1,-263.5 4,-262.6 4,-261.5z"></path><g opacity="1" transform="matrix(1,0,0,1,0,-256)"></g></g><g opacity="1" transform="matrix(-0.42988091707229614,0.9028857946395874,-0.9028857946395874,-0.42988091707229614,0,0)"><path fill="rgb(20,180,183)" fill-opacity="1" d=" M4,-261.5 C4,-261.5 4,-250.5 4,-250.5 C4,-249.4 3.1,-248.5 2,-248.5 C2,-248.5 -2,-248.5 -2,-248.5 C-3.1,-248.5 -4,-249.4 -4,-250.5 C-4,-250.5 -4,-261.5 -4,-261.5 C-4,-262.6 -3.1,-263.5 -2,-263.5 C-2,-263.5 2,-263.5 2,-263.5 C3.1,-263.5 4,-262.6 4,-261.5z"></path><g opacity="1" transform="matrix(1,0,0,1,0,-256)"></g></g><g opacity="1" transform="matrix(-0.34922635555267334,0.9370386004447937,-0.9370386004447937,-0.34922635555267334,0,0)"><path fill="rgb(20,180,183)" fill-opacity="1" d=" M4,-261.5 C4,-261.5 4,-250.5 4,-250.5 C4,-249.4 3.1,-248.5 2,-248.5 C2,-248.5 -2,-248.5 -2,-248.5 C-3.1,-248.5 -4,-249.4 -4,-250.5 C-4,-250.5 -4,-261.5 -4,-261.5 C-4,-262.6 -3.1,-263.5 -2,-263.5 C-2,-263.5 2,-263.5 2,-263.5 C3.1,-263.5 4,-262.6 4,-261.5z"></path><g opacity="1" transform="matrix(1,0,0,1,0,-256)"></g></g><g opacity="1" transform="matrix(-0.2658926546573639,0.9640028476715088,-0.9640028476715088,-0.2658926546573639,0,0)"><path fill="rgb(20,180,183)" fill-opacity="1" d=" M4,-261.5 C4,-261.5 4,-250.5 4,-250.5 C4,-249.4 3.1,-248.5 2,-248.5 C2,-248.5 -2,-248.5 -2,-248.5 C-3.1,-248.5 -4,-249.4 -4,-250.5 C-4,-250.5 -4,-261.5 -4,-261.5 C-4,-262.6 -3.1,-263.5 -2,-263.5 C-2,-263.5 2,-263.5 2,-263.5 C3.1,-263.5 4,-262.6 4,-261.5z"></path><g opacity="1" transform="matrix(1,0,0,1,0,-256)"></g></g><g opacity="1" transform="matrix(-0.18051914870738983,0.9835716485977173,-0.9835716485977173,-0.18051914870738983,0,0)"><path fill="rgb(20,180,183)" fill-opacity="1" d=" M4,-261.5 C4,-261.5 4,-250.5 4,-250.5 C4,-249.4 3.1,-248.5 2,-248.5 C2,-248.5 -2,-248.5 -2,-248.5 C-3.1,-248.5 -4,-249.4 -4,-250.5 C-4,-250.5 -4,-261.5 -4,-261.5 C-4,-262.6 -3.1,-263.5 -2,-263.5 C-2,-263.5 2,-263.5 2,-263.5 C3.1,-263.5 4,-262.6 4,-261.5z"></path><g opacity="1" transform="matrix(1,0,0,1,0,-256)"></g></g><g opacity="1" transform="matrix(-0.09376077353954315,0.9955949187278748,-0.9955949187278748,-0.09376077353954315,0,0)"><path fill="rgb(20,180,183)" fill-opacity="1" d=" M4,-261.5 C4,-261.5 4,-250.5 4,-250.5 C4,-249.4 3.1,-248.5 2,-248.5 C2,-248.5 -2,-248.5 -2,-248.5 C-3.1,-248.5 -4,-249.4 -4,-250.5 C-4,-250.5 -4,-261.5 -4,-261.5 C-4,-262.6 -3.1,-263.5 -2,-263.5 C-2,-263.5 2,-263.5 2,-263.5 C3.1,-263.5 4,-262.6 4,-261.5z"></path><g opacity="1" transform="matrix(1,0,0,1,0,-256)"></g></g><g opacity="1" transform="matrix(-0.006283107213675976,0.9999804496765137,-0.9999804496765137,-0.006283107213675976,0,0)"><path fill="rgb(20,180,183)" fill-opacity="1" d=" M4,-261.5 C4,-261.5 4,-250.5 4,-250.5 C4,-249.4 3.1,-248.5 2,-248.5 C2,-248.5 -2,-248.5 -2,-248.5 C-3.1,-248.5 -4,-249.4 -4,-250.5 C-4,-250.5 -4,-261.5 -4,-261.5 C-4,-262.6 -3.1,-263.5 -2,-263.5 C-2,-263.5 2,-263.5 2,-263.5 C3.1,-263.5 4,-262.6 4,-261.5z"></path><g opacity="1" transform="matrix(1,0,0,1,0,-256)"></g></g><g opacity="1" transform="matrix(0.08124275505542755,0.9966945052146912,-0.9966945052146912,0.08124275505542755,0,0)"><path fill="rgb(20,180,183)" fill-opacity="1" d=" M4,-261.5 C4,-261.5 4,-250.5 4,-250.5 C4,-249.4 3.1,-248.5 2,-248.5 C2,-248.5 -2,-248.5 -2,-248.5 C-3.1,-248.5 -4,-249.4 -4,-250.5 C-4,-250.5 -4,-261.5 -4,-261.5 C-4,-262.6 -3.1,-263.5 -2,-263.5 C-2,-263.5 2,-263.5 2,-263.5 C3.1,-263.5 4,-262.6 4,-261.5z"></path><g opacity="1" transform="matrix(1,0,0,1,0,-256)"></g></g><g opacity="1" transform="matrix(0.16814535856246948,0.985762357711792,-0.985762357711792,0.16814535856246948,0,0)"><path fill="rgb(20,180,183)" fill-opacity="1" d=" M4,-261.5 C4,-261.5 4,-250.5 4,-250.5 C4,-249.4 3.1,-248.5 2,-248.5 C2,-248.5 -2,-248.5 -2,-248.5 C-3.1,-248.5 -4,-249.4 -4,-250.5 C-4,-250.5 -4,-261.5 -4,-261.5 C-4,-262.6 -3.1,-263.5 -2,-263.5 C-2,-263.5 2,-263.5 2,-263.5 C3.1,-263.5 4,-262.6 4,-261.5z"></path><g opacity="1" transform="matrix(1,0,0,1,0,-256)"></g></g><g opacity="1" transform="matrix(0.2537580132484436,0.9672678709030151,-0.9672678709030151,0.2537580132484436,0,0)"><path fill="rgb(20,180,183)" fill-opacity="1" d=" M4,-261.5 C4,-261.5 4,-250.5 4,-250.5 C4,-249.4 3.1,-248.5 2,-248.5 C2,-248.5 -2,-248.5 -2,-248.5 C-3.1,-248.5 -4,-249.4 -4,-250.5 C-4,-250.5 -4,-261.5 -4,-261.5 C-4,-262.6 -3.1,-263.5 -2,-263.5 C-2,-263.5 2,-263.5 2,-263.5 C3.1,-263.5 4,-262.6 4,-261.5z"></path><g opacity="1" transform="matrix(1,0,0,1,0,-256)"></g></g><g opacity="1" transform="matrix(0.3374239504337311,0.941352903842926,-0.941352903842926,0.3374239504337311,0,0)"><path fill="rgb(20,180,183)" fill-opacity="1" d=" M4,-261.5 C4,-261.5 4,-250.5 4,-250.5 C4,-249.4 3.1,-248.5 2,-248.5 C2,-248.5 -2,-248.5 -2,-248.5 C-3.1,-248.5 -4,-249.4 -4,-250.5 C-4,-250.5 -4,-261.5 -4,-261.5 C-4,-262.6 -3.1,-263.5 -2,-263.5 C-2,-263.5 2,-263.5 2,-263.5 C3.1,-263.5 4,-262.6 4,-261.5z"></path><g opacity="1" transform="matrix(1,0,0,1,0,-256)"></g></g><g opacity="1" transform="matrix(0.4185013175010681,0.9082162976264954,-0.9082162976264954,0.4185013175010681,0,0)"><path fill="rgb(20,180,183)" fill-opacity="1" d=" M4,-261.5 C4,-261.5 4,-250.5 4,-250.5 C4,-249.4 3.1,-248.5 2,-248.5 C2,-248.5 -2,-248.5 -2,-248.5 C-3.1,-248.5 -4,-249.4 -4,-250.5 C-4,-250.5 -4,-261.5 -4,-261.5 C-4,-262.6 -3.1,-263.5 -2,-263.5 C-2,-263.5 2,-263.5 2,-263.5 C3.1,-263.5 4,-262.6 4,-261.5z"></path><g opacity="1" transform="matrix(1,0,0,1,0,-256)"></g></g><g opacity="1" transform="matrix(0.4963681101799011,0.8681122660636902,-0.8681122660636902,0.4963681101799011,0,0)"><path fill="rgb(20,180,183)" fill-opacity="1" d=" M4,-261.5 C4,-261.5 4,-250.5 4,-250.5 C4,-249.4 3.1,-248.5 2,-248.5 C2,-248.5 -2,-248.5 -2,-248.5 C-3.1,-248.5 -4,-249.4 -4,-250.5 C-4,-250.5 -4,-261.5 -4,-261.5 C-4,-262.6 -3.1,-263.5 -2,-263.5 C-2,-263.5 2,-263.5 2,-263.5 C3.1,-263.5 4,-262.6 4,-261.5z"></path><g opacity="1" transform="matrix(1,0,0,1,0,-256)"></g></g><g opacity="1" transform="matrix(0.5704270005226135,0.8213484287261963,-0.8213484287261963,0.5704270005226135,0,0)"><path fill="rgb(20,180,183)" fill-opacity="1" d=" M4,-261.5 C4,-261.5 4,-250.5 4,-250.5 C4,-249.4 3.1,-248.5 2,-248.5 C2,-248.5 -2,-248.5 -2,-248.5 C-3.1,-248.5 -4,-249.4 -4,-250.5 C-4,-250.5 -4,-261.5 -4,-261.5 C-4,-262.6 -3.1,-263.5 -2,-263.5 C-2,-263.5 2,-263.5 2,-263.5 C3.1,-263.5 4,-262.6 4,-261.5z"></path><g opacity="1" transform="matrix(1,0,0,1,0,-256)"></g></g><g opacity="1" transform="matrix(0.6401097774505615,0.7682835459709167,-0.7682835459709167,0.6401097774505615,0,0)"><path fill="rgb(20,180,183)" fill-opacity="1" d=" M4,-261.5 C4,-261.5 4,-250.5 4,-250.5 C4,-249.4 3.1,-248.5 2,-248.5 C2,-248.5 -2,-248.5 -2,-248.5 C-3.1,-248.5 -4,-249.4 -4,-250.5 C-4,-250.5 -4,-261.5 -4,-261.5 C-4,-262.6 -3.1,-263.5 -2,-263.5 C-2,-263.5 2,-263.5 2,-263.5 C3.1,-263.5 4,-262.6 4,-261.5z"></path><g opacity="1" transform="matrix(1,0,0,1,0,-256)"></g></g><g opacity="1" transform="matrix(0.7048819065093994,0.7093247771263123,-0.7093247771263123,0.7048819065093994,0,0)"><path fill="rgb(20,180,183)" fill-opacity="1" d=" M4,-261.5 C4,-261.5 4,-250.5 4,-250.5 C4,-249.4 3.1,-248.5 2,-248.5 C2,-248.5 -2,-248.5 -2,-248.5 C-3.1,-248.5 -4,-249.4 -4,-250.5 C-4,-250.5 -4,-261.5 -4,-261.5 C-4,-262.6 -3.1,-263.5 -2,-263.5 C-2,-263.5 2,-263.5 2,-263.5 C3.1,-263.5 4,-262.6 4,-261.5z"></path><g opacity="1" transform="matrix(1,0,0,1,0,-256)"></g></g><g opacity="1" transform="matrix(0.7642465233802795,0.6449243426322937,-0.6449243426322937,0.7642465233802795,0,0)"><path fill="rgb(20,180,183)" fill-opacity="1" d=" M4,-261.5 C4,-261.5 4,-250.5 4,-250.5 C4,-249.4 3.1,-248.5 2,-248.5 C2,-248.5 -2,-248.5 -2,-248.5 C-3.1,-248.5 -4,-249.4 -4,-250.5 C-4,-250.5 -4,-261.5 -4,-261.5 C-4,-262.6 -3.1,-263.5 -2,-263.5 C-2,-263.5 2,-263.5 2,-263.5 C3.1,-263.5 4,-262.6 4,-261.5z"></path><g opacity="1" transform="matrix(1,0,0,1,0,-256)"></g></g><g opacity="1" transform="matrix(0.8177481293678284,0.5755763053894043,-0.5755763053894043,0.8177481293678284,0,0)"><path fill="rgb(20,180,183)" fill-opacity="1" d=" M4,-261.5 C4,-261.5 4,-250.5 4,-250.5 C4,-249.4 3.1,-248.5 2,-248.5 C2,-248.5 -2,-248.5 -2,-248.5 C-3.1,-248.5 -4,-249.4 -4,-250.5 C-4,-250.5 -4,-261.5 -4,-261.5 C-4,-262.6 -3.1,-263.5 -2,-263.5 C-2,-263.5 2,-263.5 2,-263.5 C3.1,-263.5 4,-262.6 4,-261.5z"></path><g opacity="1" transform="matrix(1,0,0,1,0,-256)"></g></g><g opacity="1" transform="matrix(0.8649763464927673,0.5018126964569092,-0.5018126964569092,0.8649763464927673,0,0)"><path fill="rgb(20,180,183)" fill-opacity="1" d=" M4,-261.5 C4,-261.5 4,-250.5 4,-250.5 C4,-249.4 3.1,-248.5 2,-248.5 C2,-248.5 -2,-248.5 -2,-248.5 C-3.1,-248.5 -4,-249.4 -4,-250.5 C-4,-250.5 -4,-261.5 -4,-261.5 C-4,-262.6 -3.1,-263.5 -2,-263.5 C-2,-263.5 2,-263.5 2,-263.5 C3.1,-263.5 4,-262.6 4,-261.5z"></path><g opacity="1" transform="matrix(1,0,0,1,0,-256)"></g></g><g opacity="1" transform="matrix(0.9055688381195068,0.4241994321346283,-0.4241994321346283,0.9055688381195068,0,0)"><path fill="rgb(20,180,183)" fill-opacity="1" d=" M4,-261.5 C4,-261.5 4,-250.5 4,-250.5 C4,-249.4 3.1,-248.5 2,-248.5 C2,-248.5 -2,-248.5 -2,-248.5 C-3.1,-248.5 -4,-249.4 -4,-250.5 C-4,-250.5 -4,-261.5 -4,-261.5 C-4,-262.6 -3.1,-263.5 -2,-263.5 C-2,-263.5 2,-263.5 2,-263.5 C3.1,-263.5 4,-262.6 4,-261.5z"></path><g opacity="1" transform="matrix(1,0,0,1,0,-256)"></g></g><g opacity="1" transform="matrix(0.9392141699790955,0.34333187341690063,-0.34333187341690063,0.9392141699790955,0,0)"><path fill="rgb(20,180,183)" fill-opacity="1" d=" M4,-261.5 C4,-261.5 4,-250.5 4,-250.5 C4,-249.4 3.1,-248.5 2,-248.5 C2,-248.5 -2,-248.5 -2,-248.5 C-3.1,-248.5 -4,-249.4 -4,-250.5 C-4,-250.5 -4,-261.5 -4,-261.5 C-4,-262.6 -3.1,-263.5 -2,-263.5 C-2,-263.5 2,-263.5 2,-263.5 C3.1,-263.5 4,-262.6 4,-261.5z"></path><g opacity="1" transform="matrix(1,0,0,1,0,-256)"></g></g><g opacity="1" transform="matrix(0.9656542539596558,0.25983041524887085,-0.25983041524887085,0.9656542539596558,0,0)"><path fill="rgb(20,180,183)" fill-opacity="1" d=" M4,-261.5 C4,-261.5 4,-250.5 4,-250.5 C4,-249.4 3.1,-248.5 2,-248.5 C2,-248.5 -2,-248.5 -2,-248.5 C-3.1,-248.5 -4,-249.4 -4,-250.5 C-4,-250.5 -4,-261.5 -4,-261.5 C-4,-262.6 -3.1,-263.5 -2,-263.5 C-2,-263.5 2,-263.5 2,-263.5 C3.1,-263.5 4,-262.6 4,-261.5z"></path><g opacity="1" transform="matrix(1,0,0,1,0,-256)"></g></g><g opacity="1" transform="matrix(0.9846862554550171,0.17433565855026245,-0.17433565855026245,0.9846862554550171,0,0)"><path fill="rgb(20,180,183)" fill-opacity="1" d=" M4,-261.5 C4,-261.5 4,-250.5 4,-250.5 C4,-249.4 3.1,-248.5 2,-248.5 C2,-248.5 -2,-248.5 -2,-248.5 C-3.1,-248.5 -4,-249.4 -4,-250.5 C-4,-250.5 -4,-261.5 -4,-261.5 C-4,-262.6 -3.1,-263.5 -2,-263.5 C-2,-263.5 2,-263.5 2,-263.5 C3.1,-263.5 4,-262.6 4,-261.5z"></path><g opacity="1" transform="matrix(1,0,0,1,0,-256)"></g></g><g opacity="1" transform="matrix(0.9961642026901245,0.08750347793102264,-0.08750347793102264,0.9961642026901245,0,0)"><path fill="rgb(20,180,183)" fill-opacity="1" d=" M4,-261.5 C4,-261.5 4,-250.5 4,-250.5 C4,-249.4 3.1,-248.5 2,-248.5 C2,-248.5 -2,-248.5 -2,-248.5 C-3.1,-248.5 -4,-249.4 -4,-250.5 C-4,-250.5 -4,-261.5 -4,-261.5 C-4,-262.6 -3.1,-263.5 -2,-263.5 C-2,-263.5 2,-263.5 2,-263.5 C3.1,-263.5 4,-262.6 4,-261.5z"></path><g opacity="1" transform="matrix(1,0,0,1,0,-256)"></g></g><g opacity="1" transform="matrix(1,0,0,1,0,0)"><path fill="rgb(20,180,183)" fill-opacity="1" d=" M4,-261.5 C4,-261.5 4,-250.5 4,-250.5 C4,-249.4 3.1,-248.5 2,-248.5 C2,-248.5 -2,-248.5 -2,-248.5 C-3.1,-248.5 -4,-249.4 -4,-250.5 C-4,-250.5 -4,-261.5 -4,-261.5 C-4,-262.6 -3.1,-263.5 -2,-263.5 C-2,-263.5 2,-263.5 2,-263.5 C3.1,-263.5 4,-262.6 4,-261.5z"></path><g opacity="1" transform="matrix(1,0,0,1,0,-256)"></g></g></g></g><g mask="url(#__lottie_element_22)" style="display: block;"><g transform="matrix(1,0,0,1,815.260009765625,316.95098876953125)" opacity="1"><g opacity="1" transform="matrix(0.9510565400123596,-0.30901700258255005,0.30901700258255005,0.9510565400123596,82.73999786376953,264.0580139160156)"><g opacity="1" transform="matrix(-0.5807030200958252,0.8141157031059265,-0.8141157031059265,-0.5807030200958252,0,0)"><path fill="rgb(147,33,49)" fill-opacity="1" d=" M4,-261.5 C4,-261.5 4,-250.5 4,-250.5 C4,-249.4 3.1,-248.5 2,-248.5 C2,-248.5 -2,-248.5 -2,-248.5 C-3.1,-248.5 -4,-249.4 -4,-250.5 C-4,-250.5 -4,-261.5 -4,-261.5 C-4,-262.6 -3.1,-263.5 -2,-263.5 C-2,-263.5 2,-263.5 2,-263.5 C3.1,-263.5 4,-262.6 4,-261.5z"></path><g opacity="1" transform="matrix(1,0,0,1,0,-256)"></g></g><g opacity="1" transform="matrix(-0.5072376132011414,0.8618064522743225,-0.8618064522743225,-0.5072376132011414,0,0)"><path fill="rgb(147,33,49)" fill-opacity="1" d=" M4,-261.5 C4,-261.5 4,-250.5 4,-250.5 C4,-249.4 3.1,-248.5 2,-248.5 C2,-248.5 -2,-248.5 -2,-248.5 C-3.1,-248.5 -4,-249.4 -4,-250.5 C-4,-250.5 -4,-261.5 -4,-261.5 C-4,-262.6 -3.1,-263.5 -2,-263.5 C-2,-263.5 2,-263.5 2,-263.5 C3.1,-263.5 4,-262.6 4,-261.5z"></path><g opacity="1" transform="matrix(1,0,0,1,0,-256)"></g></g><g opacity="1" transform="matrix(-0.42988091707229614,0.9028857946395874,-0.9028857946395874,-0.42988091707229614,0,0)"><path fill="rgb(147,33,49)" fill-opacity="1" d=" M4,-261.5 C4,-261.5 4,-250.5 4,-250.5 C4,-249.4 3.1,-248.5 2,-248.5 C2,-248.5 -2,-248.5 -2,-248.5 C-3.1,-248.5 -4,-249.4 -4,-250.5 C-4,-250.5 -4,-261.5 -4,-261.5 C-4,-262.6 -3.1,-263.5 -2,-263.5 C-2,-263.5 2,-263.5 2,-263.5 C3.1,-263.5 4,-262.6 4,-261.5z"></path><g opacity="1" transform="matrix(1,0,0,1,0,-256)"></g></g><g opacity="1" transform="matrix(-0.34922635555267334,0.9370386004447937,-0.9370386004447937,-0.34922635555267334,0,0)"><path fill="rgb(147,33,49)" fill-opacity="1" d=" M4,-261.5 C4,-261.5 4,-250.5 4,-250.5 C4,-249.4 3.1,-248.5 2,-248.5 C2,-248.5 -2,-248.5 -2,-248.5 C-3.1,-248.5 -4,-249.4 -4,-250.5 C-4,-250.5 -4,-261.5 -4,-261.5 C-4,-262.6 -3.1,-263.5 -2,-263.5 C-2,-263.5 2,-263.5 2,-263.5 C3.1,-263.5 4,-262.6 4,-261.5z"></path><g opacity="1" transform="matrix(1,0,0,1,0,-256)"></g></g><g opacity="1" transform="matrix(-0.2658926546573639,0.9640028476715088,-0.9640028476715088,-0.2658926546573639,0,0)"><path fill="rgb(147,33,49)" fill-opacity="1" d=" M4,-261.5 C4,-261.5 4,-250.5 4,-250.5 C4,-249.4 3.1,-248.5 2,-248.5 C2,-248.5 -2,-248.5 -2,-248.5 C-3.1,-248.5 -4,-249.4 -4,-250.5 C-4,-250.5 -4,-261.5 -4,-261.5 C-4,-262.6 -3.1,-263.5 -2,-263.5 C-2,-263.5 2,-263.5 2,-263.5 C3.1,-263.5 4,-262.6 4,-261.5z"></path><g opacity="1" transform="matrix(1,0,0,1,0,-256)"></g></g><g opacity="1" transform="matrix(-0.18051914870738983,0.9835716485977173,-0.9835716485977173,-0.18051914870738983,0,0)"><path fill="rgb(147,33,49)" fill-opacity="1" d=" M4,-261.5 C4,-261.5 4,-250.5 4,-250.5 C4,-249.4 3.1,-248.5 2,-248.5 C2,-248.5 -2,-248.5 -2,-248.5 C-3.1,-248.5 -4,-249.4 -4,-250.5 C-4,-250.5 -4,-261.5 -4,-261.5 C-4,-262.6 -3.1,-263.5 -2,-263.5 C-2,-263.5 2,-263.5 2,-263.5 C3.1,-263.5 4,-262.6 4,-261.5z"></path><g opacity="1" transform="matrix(1,0,0,1,0,-256)"></g></g><g opacity="1" transform="matrix(-0.09376077353954315,0.9955949187278748,-0.9955949187278748,-0.09376077353954315,0,0)"><path fill="rgb(147,33,49)" fill-opacity="1" d=" M4,-261.5 C4,-261.5 4,-250.5 4,-250.5 C4,-249.4 3.1,-248.5 2,-248.5 C2,-248.5 -2,-248.5 -2,-248.5 C-3.1,-248.5 -4,-249.4 -4,-250.5 C-4,-250.5 -4,-261.5 -4,-261.5 C-4,-262.6 -3.1,-263.5 -2,-263.5 C-2,-263.5 2,-263.5 2,-263.5 C3.1,-263.5 4,-262.6 4,-261.5z"></path><g opacity="1" transform="matrix(1,0,0,1,0,-256)"></g></g><g opacity="1" transform="matrix(-0.006283107213675976,0.9999804496765137,-0.9999804496765137,-0.006283107213675976,0,0)"><path fill="rgb(147,33,49)" fill-opacity="1" d=" M4,-261.5 C4,-261.5 4,-250.5 4,-250.5 C4,-249.4 3.1,-248.5 2,-248.5 C2,-248.5 -2,-248.5 -2,-248.5 C-3.1,-248.5 -4,-249.4 -4,-250.5 C-4,-250.5 -4,-261.5 -4,-261.5 C-4,-262.6 -3.1,-263.5 -2,-263.5 C-2,-263.5 2,-263.5 2,-263.5 C3.1,-263.5 4,-262.6 4,-261.5z"></path><g opacity="1" transform="matrix(1,0,0,1,0,-256)"></g></g><g opacity="1" transform="matrix(0.08124275505542755,0.9966945052146912,-0.9966945052146912,0.08124275505542755,0,0)"><path fill="rgb(147,33,49)" fill-opacity="1" d=" M4,-261.5 C4,-261.5 4,-250.5 4,-250.5 C4,-249.4 3.1,-248.5 2,-248.5 C2,-248.5 -2,-248.5 -2,-248.5 C-3.1,-248.5 -4,-249.4 -4,-250.5 C-4,-250.5 -4,-261.5 -4,-261.5 C-4,-262.6 -3.1,-263.5 -2,-263.5 C-2,-263.5 2,-263.5 2,-263.5 C3.1,-263.5 4,-262.6 4,-261.5z"></path><g opacity="1" transform="matrix(1,0,0,1,0,-256)"></g></g><g opacity="1" transform="matrix(0.16814535856246948,0.985762357711792,-0.985762357711792,0.16814535856246948,0,0)"><path fill="rgb(147,33,49)" fill-opacity="1" d=" M4,-261.5 C4,-261.5 4,-250.5 4,-250.5 C4,-249.4 3.1,-248.5 2,-248.5 C2,-248.5 -2,-248.5 -2,-248.5 C-3.1,-248.5 -4,-249.4 -4,-250.5 C-4,-250.5 -4,-261.5 -4,-261.5 C-4,-262.6 -3.1,-263.5 -2,-263.5 C-2,-263.5 2,-263.5 2,-263.5 C3.1,-263.5 4,-262.6 4,-261.5z"></path><g opacity="1" transform="matrix(1,0,0,1,0,-256)"></g></g><g opacity="1" transform="matrix(0.2537580132484436,0.9672678709030151,-0.9672678709030151,0.2537580132484436,0,0)"><path fill="rgb(147,33,49)" fill-opacity="1" d=" M4,-261.5 C4,-261.5 4,-250.5 4,-250.5 C4,-249.4 3.1,-248.5 2,-248.5 C2,-248.5 -2,-248.5 -2,-248.5 C-3.1,-248.5 -4,-249.4 -4,-250.5 C-4,-250.5 -4,-261.5 -4,-261.5 C-4,-262.6 -3.1,-263.5 -2,-263.5 C-2,-263.5 2,-263.5 2,-263.5 C3.1,-263.5 4,-262.6 4,-261.5z"></path><g opacity="1" transform="matrix(1,0,0,1,0,-256)"></g></g><g opacity="1" transform="matrix(0.3374239504337311,0.941352903842926,-0.941352903842926,0.3374239504337311,0,0)"><path fill="rgb(147,33,49)" fill-opacity="1" d=" M4,-261.5 C4,-261.5 4,-250.5 4,-250.5 C4,-249.4 3.1,-248.5 2,-248.5 C2,-248.5 -2,-248.5 -2,-248.5 C-3.1,-248.5 -4,-249.4 -4,-250.5 C-4,-250.5 -4,-261.5 -4,-261.5 C-4,-262.6 -3.1,-263.5 -2,-263.5 C-2,-263.5 2,-263.5 2,-263.5 C3.1,-263.5 4,-262.6 4,-261.5z"></path><g opacity="1" transform="matrix(1,0,0,1,0,-256)"></g></g><g opacity="1" transform="matrix(0.4185013175010681,0.9082162976264954,-0.9082162976264954,0.4185013175010681,0,0)"><path fill="rgb(147,33,49)" fill-opacity="1" d=" M4,-261.5 C4,-261.5 4,-250.5 4,-250.5 C4,-249.4 3.1,-248.5 2,-248.5 C2,-248.5 -2,-248.5 -2,-248.5 C-3.1,-248.5 -4,-249.4 -4,-250.5 C-4,-250.5 -4,-261.5 -4,-261.5 C-4,-262.6 -3.1,-263.5 -2,-263.5 C-2,-263.5 2,-263.5 2,-263.5 C3.1,-263.5 4,-262.6 4,-261.5z"></path><g opacity="1" transform="matrix(1,0,0,1,0,-256)"></g></g><g opacity="1" transform="matrix(0.4963681101799011,0.8681122660636902,-0.8681122660636902,0.4963681101799011,0,0)"><path fill="rgb(147,33,49)" fill-opacity="1" d=" M4,-261.5 C4,-261.5 4,-250.5 4,-250.5 C4,-249.4 3.1,-248.5 2,-248.5 C2,-248.5 -2,-248.5 -2,-248.5 C-3.1,-248.5 -4,-249.4 -4,-250.5 C-4,-250.5 -4,-261.5 -4,-261.5 C-4,-262.6 -3.1,-263.5 -2,-263.5 C-2,-263.5 2,-263.5 2,-263.5 C3.1,-263.5 4,-262.6 4,-261.5z"></path><g opacity="1" transform="matrix(1,0,0,1,0,-256)"></g></g><g opacity="1" transform="matrix(0.5704270005226135,0.8213484287261963,-0.8213484287261963,0.5704270005226135,0,0)"><path fill="rgb(147,33,49)" fill-opacity="1" d=" M4,-261.5 C4,-261.5 4,-250.5 4,-250.5 C4,-249.4 3.1,-248.5 2,-248.5 C2,-248.5 -2,-248.5 -2,-248.5 C-3.1,-248.5 -4,-249.4 -4,-250.5 C-4,-250.5 -4,-261.5 -4,-261.5 C-4,-262.6 -3.1,-263.5 -2,-263.5 C-2,-263.5 2,-263.5 2,-263.5 C3.1,-263.5 4,-262.6 4,-261.5z"></path><g opacity="1" transform="matrix(1,0,0,1,0,-256)"></g></g><g opacity="1" transform="matrix(0.6401097774505615,0.7682835459709167,-0.7682835459709167,0.6401097774505615,0,0)"><path fill="rgb(147,33,49)" fill-opacity="1" d=" M4,-261.5 C4,-261.5 4,-250.5 4,-250.5 C4,-249.4 3.1,-248.5 2,-248.5 C2,-248.5 -2,-248.5 -2,-248.5 C-3.1,-248.5 -4,-249.4 -4,-250.5 C-4,-250.5 -4,-261.5 -4,-261.5 C-4,-262.6 -3.1,-263.5 -2,-263.5 C-2,-263.5 2,-263.5 2,-263.5 C3.1,-263.5 4,-262.6 4,-261.5z"></path><g opacity="1" transform="matrix(1,0,0,1,0,-256)"></g></g><g opacity="1" transform="matrix(0.7048819065093994,0.7093247771263123,-0.7093247771263123,0.7048819065093994,0,0)"><path fill="rgb(147,33,49)" fill-opacity="1" d=" M4,-261.5 C4,-261.5 4,-250.5 4,-250.5 C4,-249.4 3.1,-248.5 2,-248.5 C2,-248.5 -2,-248.5 -2,-248.5 C-3.1,-248.5 -4,-249.4 -4,-250.5 C-4,-250.5 -4,-261.5 -4,-261.5 C-4,-262.6 -3.1,-263.5 -2,-263.5 C-2,-263.5 2,-263.5 2,-263.5 C3.1,-263.5 4,-262.6 4,-261.5z"></path><g opacity="1" transform="matrix(1,0,0,1,0,-256)"></g></g><g opacity="1" transform="matrix(0.7642465233802795,0.6449243426322937,-0.6449243426322937,0.7642465233802795,0,0)"><path fill="rgb(147,33,49)" fill-opacity="1" d=" M4,-261.5 C4,-261.5 4,-250.5 4,-250.5 C4,-249.4 3.1,-248.5 2,-248.5 C2,-248.5 -2,-248.5 -2,-248.5 C-3.1,-248.5 -4,-249.4 -4,-250.5 C-4,-250.5 -4,-261.5 -4,-261.5 C-4,-262.6 -3.1,-263.5 -2,-263.5 C-2,-263.5 2,-263.5 2,-263.5 C3.1,-263.5 4,-262.6 4,-261.5z"></path><g opacity="1" transform="matrix(1,0,0,1,0,-256)"></g></g><g opacity="1" transform="matrix(0.8177481293678284,0.5755763053894043,-0.5755763053894043,0.8177481293678284,0,0)"><path fill="rgb(147,33,49)" fill-opacity="1" d=" M4,-261.5 C4,-261.5 4,-250.5 4,-250.5 C4,-249.4 3.1,-248.5 2,-248.5 C2,-248.5 -2,-248.5 -2,-248.5 C-3.1,-248.5 -4,-249.4 -4,-250.5 C-4,-250.5 -4,-261.5 -4,-261.5 C-4,-262.6 -3.1,-263.5 -2,-263.5 C-2,-263.5 2,-263.5 2,-263.5 C3.1,-263.5 4,-262.6 4,-261.5z"></path><g opacity="1" transform="matrix(1,0,0,1,0,-256)"></g></g><g opacity="1" transform="matrix(0.8649763464927673,0.5018126964569092,-0.5018126964569092,0.8649763464927673,0,0)"><path fill="rgb(147,33,49)" fill-opacity="1" d=" M4,-261.5 C4,-261.5 4,-250.5 4,-250.5 C4,-249.4 3.1,-248.5 2,-248.5 C2,-248.5 -2,-248.5 -2,-248.5 C-3.1,-248.5 -4,-249.4 -4,-250.5 C-4,-250.5 -4,-261.5 -4,-261.5 C-4,-262.6 -3.1,-263.5 -2,-263.5 C-2,-263.5 2,-263.5 2,-263.5 C3.1,-263.5 4,-262.6 4,-261.5z"></path><g opacity="1" transform="matrix(1,0,0,1,0,-256)"></g></g><g opacity="1" transform="matrix(0.9055688381195068,0.4241994321346283,-0.4241994321346283,0.9055688381195068,0,0)"><path fill="rgb(147,33,49)" fill-opacity="1" d=" M4,-261.5 C4,-261.5 4,-250.5 4,-250.5 C4,-249.4 3.1,-248.5 2,-248.5 C2,-248.5 -2,-248.5 -2,-248.5 C-3.1,-248.5 -4,-249.4 -4,-250.5 C-4,-250.5 -4,-261.5 -4,-261.5 C-4,-262.6 -3.1,-263.5 -2,-263.5 C-2,-263.5 2,-263.5 2,-263.5 C3.1,-263.5 4,-262.6 4,-261.5z"></path><g opacity="1" transform="matrix(1,0,0,1,0,-256)"></g></g><g opacity="1" transform="matrix(0.9392141699790955,0.34333187341690063,-0.34333187341690063,0.9392141699790955,0,0)"><path fill="rgb(147,33,49)" fill-opacity="1" d=" M4,-261.5 C4,-261.5 4,-250.5 4,-250.5 C4,-249.4 3.1,-248.5 2,-248.5 C2,-248.5 -2,-248.5 -2,-248.5 C-3.1,-248.5 -4,-249.4 -4,-250.5 C-4,-250.5 -4,-261.5 -4,-261.5 C-4,-262.6 -3.1,-263.5 -2,-263.5 C-2,-263.5 2,-263.5 2,-263.5 C3.1,-263.5 4,-262.6 4,-261.5z"></path><g opacity="1" transform="matrix(1,0,0,1,0,-256)"></g></g><g opacity="1" transform="matrix(0.9656542539596558,0.25983041524887085,-0.25983041524887085,0.9656542539596558,0,0)"><path fill="rgb(147,33,49)" fill-opacity="1" d=" M4,-261.5 C4,-261.5 4,-250.5 4,-250.5 C4,-249.4 3.1,-248.5 2,-248.5 C2,-248.5 -2,-248.5 -2,-248.5 C-3.1,-248.5 -4,-249.4 -4,-250.5 C-4,-250.5 -4,-261.5 -4,-261.5 C-4,-262.6 -3.1,-263.5 -2,-263.5 C-2,-263.5 2,-263.5 2,-263.5 C3.1,-263.5 4,-262.6 4,-261.5z"></path><g opacity="1" transform="matrix(1,0,0,1,0,-256)"></g></g><g opacity="1" transform="matrix(0.9846862554550171,0.17433565855026245,-0.17433565855026245,0.9846862554550171,0,0)"><path fill="rgb(147,33,49)" fill-opacity="1" d=" M4,-261.5 C4,-261.5 4,-250.5 4,-250.5 C4,-249.4 3.1,-248.5 2,-248.5 C2,-248.5 -2,-248.5 -2,-248.5 C-3.1,-248.5 -4,-249.4 -4,-250.5 C-4,-250.5 -4,-261.5 -4,-261.5 C-4,-262.6 -3.1,-263.5 -2,-263.5 C-2,-263.5 2,-263.5 2,-263.5 C3.1,-263.5 4,-262.6 4,-261.5z"></path><g opacity="1" transform="matrix(1,0,0,1,0,-256)"></g></g><g opacity="1" transform="matrix(0.9961642026901245,0.08750347793102264,-0.08750347793102264,0.9961642026901245,0,0)"><path fill="rgb(147,33,49)" fill-opacity="1" d=" M4,-261.5 C4,-261.5 4,-250.5 4,-250.5 C4,-249.4 3.1,-248.5 2,-248.5 C2,-248.5 -2,-248.5 -2,-248.5 C-3.1,-248.5 -4,-249.4 -4,-250.5 C-4,-250.5 -4,-261.5 -4,-261.5 C-4,-262.6 -3.1,-263.5 -2,-263.5 C-2,-263.5 2,-263.5 2,-263.5 C3.1,-263.5 4,-262.6 4,-261.5z"></path><g opacity="1" transform="matrix(1,0,0,1,0,-256)"></g></g><g opacity="1" transform="matrix(1,0,0,1,0,0)"><path fill="rgb(147,33,49)" fill-opacity="1" d=" M4,-261.5 C4,-261.5 4,-250.5 4,-250.5 C4,-249.4 3.1,-248.5 2,-248.5 C2,-248.5 -2,-248.5 -2,-248.5 C-3.1,-248.5 -4,-249.4 -4,-250.5 C-4,-250.5 -4,-261.5 -4,-261.5 C-4,-262.6 -3.1,-263.5 -2,-263.5 C-2,-263.5 2,-263.5 2,-263.5 C3.1,-263.5 4,-262.6 4,-261.5z"></path><g opacity="1" transform="matrix(1,0,0,1,0,-256)"></g></g></g></g></g><g transform="matrix(1,0,0,1,812.259033203125,315.9420166015625)" opacity="1" style="display: block;"><g opacity="1" transform="matrix(0.9537169337272644,-0.30070579051971436,0.30070579051971436,0.9537169337272644,82.73999786376953,264.0580139160156)"><g opacity="1" transform="matrix(-0.5735763907432556,0.8191520571708679,-0.8191520571708679,-0.5735763907432556,0,0)"><path fill="rgb(20,180,183)" fill-opacity="1" d=" M5,-265.5 C5,-265.5 5,-234.5 5,-234.5 C5,-233.4 4.1,-232.5 3,-232.5 C3,-232.5 -3,-232.5 -3,-232.5 C-4.1,-232.5 -5,-233.4 -5,-234.5 C-5,-234.5 -5,-265.5 -5,-265.5 C-5,-266.6 -4.1,-267.5 -3,-267.5 C-3,-267.5 3,-267.5 3,-267.5 C4.1,-267.5 5,-266.6 5,-265.5z"></path><g opacity="1" transform="matrix(1,0,0,1,0,-250)"></g></g><g opacity="1" transform="matrix(-0.1736481487751007,0.9848077297210693,-0.9848077297210693,-0.1736481487751007,0,0)"><path fill="rgb(20,180,183)" fill-opacity="1" d=" M5,-265.5 C5,-265.5 5,-234.5 5,-234.5 C5,-233.4 4.1,-232.5 3,-232.5 C3,-232.5 -3,-232.5 -3,-232.5 C-4.1,-232.5 -5,-233.4 -5,-234.5 C-5,-234.5 -5,-265.5 -5,-265.5 C-5,-266.6 -4.1,-267.5 -3,-267.5 C-3,-267.5 3,-267.5 3,-267.5 C4.1,-267.5 5,-266.6 5,-265.5z"></path><g opacity="1" transform="matrix(1,0,0,1,0,-250)"></g></g><g opacity="1" transform="matrix(0.2588190734386444,0.9659258127212524,-0.9659258127212524,0.2588190734386444,0,0)"><path fill="rgb(20,180,183)" fill-opacity="1" d=" M5,-265.5 C5,-265.5 5,-234.5 5,-234.5 C5,-233.4 4.1,-232.5 3,-232.5 C3,-232.5 -3,-232.5 -3,-232.5 C-4.1,-232.5 -5,-233.4 -5,-234.5 C-5,-234.5 -5,-265.5 -5,-265.5 C-5,-266.6 -4.1,-267.5 -3,-267.5 C-3,-267.5 3,-267.5 3,-267.5 C4.1,-267.5 5,-266.6 5,-265.5z"></path><g opacity="1" transform="matrix(1,0,0,1,0,-250)"></g></g><g opacity="1" transform="matrix(0.6427876353263855,0.7660444378852844,-0.7660444378852844,0.6427876353263855,0,0)"><path fill="rgb(20,180,183)" fill-opacity="1" d=" M5,-265.5 C5,-265.5 5,-234.5 5,-234.5 C5,-233.4 4.1,-232.5 3,-232.5 C3,-232.5 -3,-232.5 -3,-232.5 C-4.1,-232.5 -5,-233.4 -5,-234.5 C-5,-234.5 -5,-265.5 -5,-265.5 C-5,-266.6 -4.1,-267.5 -3,-267.5 C-3,-267.5 3,-267.5 3,-267.5 C4.1,-267.5 5,-266.6 5,-265.5z"></path><g opacity="1" transform="matrix(1,0,0,1,0,-250)"></g></g><g opacity="1" transform="matrix(0.9063078165054321,0.4226182699203491,-0.4226182699203491,0.9063078165054321,0,0)"><path fill="rgb(20,180,183)" fill-opacity="1" d=" M5,-265.5 C5,-265.5 5,-234.5 5,-234.5 C5,-233.4 4.1,-232.5 3,-232.5 C3,-232.5 -3,-232.5 -3,-232.5 C-4.1,-232.5 -5,-233.4 -5,-234.5 C-5,-234.5 -5,-265.5 -5,-265.5 C-5,-266.6 -4.1,-267.5 -3,-267.5 C-3,-267.5 3,-267.5 3,-267.5 C4.1,-267.5 5,-266.6 5,-265.5z"></path><g opacity="1" transform="matrix(1,0,0,1,0,-250)"></g></g><g opacity="1" transform="matrix(1,0,0,1,0,0)"><path fill="rgb(20,180,183)" fill-opacity="1" d=" M5,-265.5 C5,-265.5 5,-234.5 5,-234.5 C5,-233.4 4.1,-232.5 3,-232.5 C3,-232.5 -3,-232.5 -3,-232.5 C-4.1,-232.5 -5,-233.4 -5,-234.5 C-5,-234.5 -5,-265.5 -5,-265.5 C-5,-266.6 -4.1,-267.5 -3,-267.5 C-3,-267.5 3,-267.5 3,-267.5 C4.1,-267.5 5,-266.6 5,-265.5z"></path><g opacity="1" transform="matrix(1,0,0,1,0,-250)"></g></g></g></g><g mask="url(#__lottie_element_13)" style="display: block;"><g transform="matrix(1,0,0,1,812.259033203125,315.9420166015625)" opacity="1"><g opacity="1" transform="matrix(0.9537169337272644,-0.30070579051971436,0.30070579051971436,0.9537169337272644,82.73999786376953,264.0580139160156)"><g opacity="1" transform="matrix(-0.5735763907432556,0.8191520571708679,-0.8191520571708679,-0.5735763907432556,0,0)"><path fill="rgb(147,33,49)" fill-opacity="1" d=" M5,-265.5 C5,-265.5 5,-234.5 5,-234.5 C5,-233.4 4.1,-232.5 3,-232.5 C3,-232.5 -3,-232.5 -3,-232.5 C-4.1,-232.5 -5,-233.4 -5,-234.5 C-5,-234.5 -5,-265.5 -5,-265.5 C-5,-266.6 -4.1,-267.5 -3,-267.5 C-3,-267.5 3,-267.5 3,-267.5 C4.1,-267.5 5,-266.6 5,-265.5z"></path><g opacity="1" transform="matrix(1,0,0,1,0,-250)"></g></g><g opacity="1" transform="matrix(-0.1736481487751007,0.9848077297210693,-0.9848077297210693,-0.1736481487751007,0,0)"><path fill="rgb(147,33,49)" fill-opacity="1" d=" M5,-265.5 C5,-265.5 5,-234.5 5,-234.5 C5,-233.4 4.1,-232.5 3,-232.5 C3,-232.5 -3,-232.5 -3,-232.5 C-4.1,-232.5 -5,-233.4 -5,-234.5 C-5,-234.5 -5,-265.5 -5,-265.5 C-5,-266.6 -4.1,-267.5 -3,-267.5 C-3,-267.5 3,-267.5 3,-267.5 C4.1,-267.5 5,-266.6 5,-265.5z"></path><g opacity="1" transform="matrix(1,0,0,1,0,-250)"></g></g><g opacity="1" transform="matrix(0.2588190734386444,0.9659258127212524,-0.9659258127212524,0.2588190734386444,0,0)"><path fill="rgb(147,33,49)" fill-opacity="1" d=" M5,-265.5 C5,-265.5 5,-234.5 5,-234.5 C5,-233.4 4.1,-232.5 3,-232.5 C3,-232.5 -3,-232.5 -3,-232.5 C-4.1,-232.5 -5,-233.4 -5,-234.5 C-5,-234.5 -5,-265.5 -5,-265.5 C-5,-266.6 -4.1,-267.5 -3,-267.5 C-3,-267.5 3,-267.5 3,-267.5 C4.1,-267.5 5,-266.6 5,-265.5z"></path><g opacity="1" transform="matrix(1,0,0,1,0,-250)"></g></g><g opacity="1" transform="matrix(0.6427876353263855,0.7660444378852844,-0.7660444378852844,0.6427876353263855,0,0)"><path fill="rgb(147,33,49)" fill-opacity="1" d=" M5,-265.5 C5,-265.5 5,-234.5 5,-234.5 C5,-233.4 4.1,-232.5 3,-232.5 C3,-232.5 -3,-232.5 -3,-232.5 C-4.1,-232.5 -5,-233.4 -5,-234.5 C-5,-234.5 -5,-265.5 -5,-265.5 C-5,-266.6 -4.1,-267.5 -3,-267.5 C-3,-267.5 3,-267.5 3,-267.5 C4.1,-267.5 5,-266.6 5,-265.5z"></path><g opacity="1" transform="matrix(1,0,0,1,0,-250)"></g></g><g opacity="1" transform="matrix(0.9063078165054321,0.4226182699203491,-0.4226182699203491,0.9063078165054321,0,0)"><path fill="rgb(147,33,49)" fill-opacity="1" d=" M5,-265.5 C5,-265.5 5,-234.5 5,-234.5 C5,-233.4 4.1,-232.5 3,-232.5 C3,-232.5 -3,-232.5 -3,-232.5 C-4.1,-232.5 -5,-233.4 -5,-234.5 C-5,-234.5 -5,-265.5 -5,-265.5 C-5,-266.6 -4.1,-267.5 -3,-267.5 C-3,-267.5 3,-267.5 3,-267.5 C4.1,-267.5 5,-266.6 5,-265.5z"></path><g opacity="1" transform="matrix(1,0,0,1,0,-250)"></g></g><g opacity="1" transform="matrix(1,0,0,1,0,0)"><path fill="rgb(147,33,49)" fill-opacity="1" d=" M5,-265.5 C5,-265.5 5,-234.5 5,-234.5 C5,-233.4 4.1,-232.5 3,-232.5 C3,-232.5 -3,-232.5 -3,-232.5 C-4.1,-232.5 -5,-233.4 -5,-234.5 C-5,-234.5 -5,-265.5 -5,-265.5 C-5,-266.6 -4.1,-267.5 -3,-267.5 C-3,-267.5 3,-267.5 3,-267.5 C4.1,-267.5 5,-266.6 5,-265.5z"></path><g opacity="1" transform="matrix(1,0,0,1,0,-250)"></g></g></g></g></g><g transform="matrix(1,0,0,1,837.1749877929688,521.760986328125)" opacity="1" style="display: block;"><g opacity="1" transform="matrix(1,0,0,1,57.8390007019043,57.8380012512207)"><path stroke-linecap="butt" stroke-linejoin="miter" fill-opacity="0" stroke-miterlimit="10" stroke="rgb(1,157,161)" stroke-opacity="0.25" stroke-width="20" d=" M45.61199951171875,-14.381999969482422 C37.66899871826172,-39.573001861572266 10.809000015258789,-53.55400085449219 -14.380999565124512,-45.61199951171875 C-39.571998596191406,-37.66899871826172 -53.55500030517578,-10.8100004196167 -45.61199951171875,14.380999565124512 C-37.66899871826172,39.571998596191406 -10.809000015258789,53.55400085449219 14.380999565124512,45.611000061035156 C39.571998596191406,37.66899871826172 53.55500030517578,10.809000015258789 45.61199951171875,-14.381999969482422z"></path></g><g opacity="1" transform="matrix(1,0,0,1,57.8380012512207,57.8380012512207)"><path stroke-linecap="butt" stroke-linejoin="miter" fill-opacity="0" stroke-miterlimit="10" stroke="rgb(1,157,161)" stroke-opacity="1" stroke-width="4" d=" M35.922000885009766,-11.326000213623047 C29.66699981689453,-31.165000915527344 8.512999534606934,-42.176998138427734 -11.326000213623047,-35.922000885009766 C-31.165000915527344,-29.66699981689453 -42.176998138427734,-8.512999534606934 -35.922000885009766,11.326000213623047 C-29.666000366210938,31.165000915527344 -8.512999534606934,42.176998138427734 11.326000213623047,35.922000885009766 C31.165000915527344,29.66699981689453 42.176998138427734,8.512999534606934 35.922000885009766,-11.326000213623047z"></path></g></g><g transform="matrix(0.9902908205986023,0.13901114463806152,-0.13901114463806152,0.9902908205986023,871.8921508789062,549.3441162109375)" opacity="1" style="display: block;"><g opacity="1" transform="matrix(1,0,0,1,27.145999908447266,27.145999908447266)"><path fill="rgb(20,180,183)" fill-opacity="1" d=" M-22.906999588012695,7.2220001220703125 C-26.895999908447266,-5.428999900817871 -19.874000549316406,-18.917999267578125 -7.2230000495910645,-22.906999588012695 C5.427999973297119,-26.895999908447266 18.917999267578125,-19.874000549316406 22.906999588012695,-7.2230000495910645 C26.895999908447266,5.427999973297119 19.87299919128418,18.917999267578125 7.2220001220703125,22.9060001373291 C-5.428999900817871,26.895000457763672 -18.917999267578125,19.87299919128418 -22.906999588012695,7.2220001220703125z"></path></g><g opacity="1" transform="matrix(1,0,0,1,123.45999908447266,27.292999267578125)"><path fill="rgb(20,180,183)" fill-opacity="1" d=" M102.65899658203125,3.5 C102.65899658203125,3.5 102.65899658203125,3.5 102.65899658203125,3.5 C102.83200073242188,0.10899999737739563 103.99700164794922,-2.5850000381469727 96.77200317382812,-2.828000068664551 C89.5469970703125,-3.071000099182129 -52.900001525878906,-4.4770002365112305 -52.900001525878906,-4.4770002365112305 C-52.900001525878906,-4.4770002365112305 -52.957000732421875,7.2270002365112305 -52.957000732421875,7.2270002365112305 C-52.957000732421875,7.2270002365112305 90.2770004272461,9.321999549865723 96.6510009765625,9.217000007629395 C103.0250015258789,9.112000465393066 102.49600219726562,6.699999809265137 102.65899658203125,3.5z"></path></g></g></g></g></svg>
