<svg width="550" height="550" viewBox="0 0 550 550" fill="none" xmlns="http://www.w3.org/2000/svg">
<g clip-path="url(#clip0_1_2)">
<mask id="mask0_1_2" style="mask-type:luminance" maskUnits="userSpaceOnUse" x="0" y="0" width="550" height="550">
<path d="M550 0H0V550H550V0Z" fill="white"/>
</mask>
<g mask="url(#mask0_1_2)">
<mask id="mask1_1_2" style="mask-type:luminance" maskUnits="userSpaceOnUse" x="-685" y="-265" width="1920" height="1080">
<path d="M-685 -265H1235V815H-685V-265Z" fill="white"/>
</mask>
<g mask="url(#mask1_1_2)">
<path d="M470.593 433.505C498.994 371.317 505.358 298.808 483.181 228.471C435.613 77.605 274.751 -6.13601 123.884 41.432C119.967 42.667 116.096 43.979 112.27 45.365" stroke="#019DA1" stroke-width="2" stroke-miterlimit="10"/>
<path d="M461.194 398.458L450.703 395.151C449.654 394.82 449.067 393.691 449.397 392.642L450.6 388.827C450.931 387.778 452.06 387.19 453.109 387.521L463.6 390.829C464.649 391.159 465.237 392.288 464.906 393.338L463.703 397.152C463.372 398.202 462.243 398.789 461.194 398.458Z" fill="#14B4B7"/>
<path d="M467.457 376.424L456.717 374.047C455.643 373.81 454.958 372.736 455.196 371.662L456.061 367.757C456.298 366.683 457.371 365.999 458.445 366.236L469.186 368.613C470.26 368.851 470.944 369.924 470.706 370.998L469.842 374.904C469.604 375.978 468.531 376.662 467.457 376.424Z" fill="#14B4B7"/>
<path d="M471.767 353.927L460.86 352.499C459.77 352.356 458.994 351.347 459.137 350.256L459.656 346.29C459.799 345.199 460.808 344.423 461.899 344.566L472.806 345.994C473.897 346.137 474.672 347.146 474.529 348.237L474.01 352.203C473.867 353.294 472.858 354.07 471.767 353.927Z" fill="#14B4B7"/>
<path d="M474.093 331.138L463.103 330.67C462.004 330.623 461.143 329.686 461.19 328.587L461.36 324.59C461.407 323.491 462.344 322.63 463.443 322.677L474.433 323.145C475.532 323.192 476.393 324.13 476.346 325.229L476.176 329.225C476.129 330.324 475.192 331.185 474.093 331.138Z" fill="#14B4B7"/>
<path d="M474.415 308.234L463.426 308.729C462.327 308.778 461.388 307.92 461.338 306.821L461.158 302.825C461.109 301.726 461.967 300.786 463.066 300.737L474.055 300.242C475.154 300.192 476.093 301.051 476.143 302.15L476.323 306.146C476.372 307.245 475.514 308.184 474.415 308.234Z" fill="#14B4B7"/>
<path d="M472.732 285.389L461.829 286.844C460.738 286.989 459.727 286.216 459.582 285.126L459.053 281.161C458.907 280.07 459.68 279.059 460.771 278.914L471.674 277.459C472.764 277.314 473.775 278.087 473.921 279.177L474.45 283.142C474.595 284.232 473.822 285.243 472.732 285.389Z" fill="#14B4B7"/>
<path d="M469.056 262.779L458.322 265.182C457.249 265.422 456.174 264.741 455.933 263.667L455.059 259.764C454.819 258.691 455.501 257.616 456.574 257.375L467.308 254.972C468.382 254.732 469.457 255.413 469.697 256.487L470.571 260.39C470.811 261.464 470.13 262.538 469.056 262.779Z" fill="#14B4B7"/>
<path d="M463.416 240.577L452.933 243.911C451.885 244.244 450.755 243.659 450.421 242.611L449.209 238.799C448.876 237.75 449.461 236.62 450.509 236.287L460.992 232.953C462.04 232.62 463.171 233.205 463.504 234.253L464.716 238.065C465.05 239.113 464.465 240.244 463.416 240.577Z" fill="#14B4B7"/>
<path d="M455.855 218.954L445.704 223.192C444.689 223.616 443.512 223.132 443.088 222.117L441.547 218.426C441.123 217.411 441.607 216.233 442.622 215.81L452.773 211.572C453.788 211.148 454.965 211.632 455.389 212.647L456.93 216.338C457.354 217.353 456.87 218.53 455.855 218.954Z" fill="#14B4B7"/>
<path d="M446.431 198.076L436.69 203.186C435.716 203.697 434.501 203.318 433.99 202.344L432.132 198.801C431.621 197.827 432 196.612 432.974 196.101L442.715 190.991C443.689 190.48 444.904 190.859 445.415 191.833L447.273 195.376C447.784 196.35 447.405 197.565 446.431 198.076Z" fill="#14B4B7"/>
<path d="M435.216 178.102L425.959 184.045C425.034 184.639 423.79 184.368 423.196 183.442L421.035 180.076C420.441 179.151 420.712 177.907 421.637 177.313L430.894 171.37C431.82 170.776 433.063 171.047 433.658 171.973L435.819 175.339C436.413 176.264 436.142 177.508 435.216 178.102Z" fill="#14B4B7"/>
<path d="M422.296 159.186L413.595 165.916C412.725 166.589 411.463 166.428 410.79 165.558L408.342 162.394C407.669 161.524 407.831 160.261 408.701 159.588L417.402 152.858C418.272 152.185 419.535 152.347 420.208 153.217L422.655 156.381C423.328 157.251 423.166 158.513 422.296 159.186Z" fill="#14B4B7"/>
<path d="M407.771 141.474L399.692 148.939C398.884 149.686 397.612 149.636 396.866 148.828L394.151 145.89C393.405 145.082 393.455 143.81 394.263 143.064L402.342 135.598C403.15 134.852 404.421 134.902 405.168 135.71L407.883 138.648C408.629 139.456 408.579 140.727 407.771 141.474Z" fill="#14B4B7"/>
<path d="M391.751 125.1L384.357 133.244C383.617 134.058 382.346 134.12 381.532 133.38L378.57 130.691C377.756 129.952 377.695 128.68 378.434 127.866L385.829 119.722C386.568 118.908 387.84 118.847 388.654 119.586L391.615 122.275C392.43 123.015 392.491 124.286 391.751 125.1Z" fill="#14B4B7"/>
<path d="M374.361 110.191L367.707 118.951C367.042 119.827 365.781 119.999 364.905 119.333L361.719 116.914C360.843 116.249 360.671 114.988 361.336 114.112L367.99 105.352C368.655 104.476 369.917 104.304 370.792 104.969L373.978 107.389C374.854 108.054 375.026 109.315 374.361 110.191Z" fill="#14B4B7"/>
<path d="M355.732 96.861L349.87 106.169C349.284 107.1 348.043 107.382 347.112 106.796L343.727 104.664C342.797 104.078 342.515 102.837 343.101 101.906L348.962 92.5979C349.549 91.6671 350.79 91.3852 351.721 91.9713L355.105 94.1028C356.036 94.689 356.318 95.9301 355.732 96.861Z" fill="#14B4B7"/>
<path d="M336.008 85.212L330.984 94.9974C330.481 95.9759 329.269 96.3654 328.291 95.8629L324.733 94.0358C323.754 93.5333 323.364 92.3216 323.867 91.3431L328.892 81.5577C329.394 80.5792 330.606 80.1897 331.584 80.6921L335.143 82.5193C336.121 83.0218 336.511 84.2335 336.008 85.212Z" fill="#14B4B7"/>
<path d="M315.341 75.3337L311.192 85.5211C310.777 86.5399 309.604 87.0339 308.585 86.619L304.881 85.1102C303.862 84.6953 303.368 83.5223 303.783 82.5036L307.932 72.3161C308.347 71.2974 309.52 70.8033 310.538 71.2182L314.243 72.727C315.262 73.1419 315.756 74.3149 315.341 75.3337Z" fill="#14B4B7"/>
<path d="M293.888 67.3017L290.647 77.8131C290.322 78.8643 289.197 79.4591 288.146 79.1349L284.324 77.9561C283.272 77.6319 282.678 76.5066 283.002 75.4555L286.244 64.944C286.568 63.8929 287.693 63.2981 288.744 63.6223L292.567 64.8011C293.618 65.1253 294.213 66.2505 293.888 67.3017Z" fill="#14B4B7"/>
<path d="M271.815 61.1776L269.506 71.9325C269.275 73.0079 268.206 73.6989 267.13 73.468L263.22 72.6281C262.144 72.3972 261.453 71.3283 261.684 70.2528L263.994 59.498C264.225 58.4225 265.294 57.7315 266.369 57.9625L270.28 58.8023C271.355 59.0333 272.046 60.1022 271.815 61.1776Z" fill="#14B4B7"/>
<path d="M249.291 57.0086L247.931 67.9242C247.796 69.0158 246.791 69.7976 245.7 69.6617L241.73 69.1673C240.639 69.0313 239.857 68.027 239.993 66.9354L241.352 56.0198C241.488 54.9282 242.493 54.1463 243.584 54.2823L247.554 54.7767C248.645 54.9127 249.427 55.917 249.291 57.0086Z" fill="#14B4B7"/>
<path d="M226.488 54.8265L226.089 65.8192C226.049 66.9185 225.117 67.7852 224.018 67.7453L220.021 67.6001C218.921 67.5602 218.055 66.6281 218.094 65.5289L218.494 54.5361C218.534 53.4368 219.466 52.5701 220.565 52.61L224.562 52.7552C225.662 52.7951 226.528 53.7272 226.488 54.8265Z" fill="#14B4B7"/>
<path d="M203.582 54.648L204.147 65.6335C204.203 66.7321 203.35 67.6771 202.252 67.7335L198.257 67.9387C197.158 67.9951 196.213 67.1424 196.157 66.0439L195.593 55.0583C195.536 53.9598 196.389 53.0148 197.488 52.9584L201.482 52.7532C202.581 52.6968 203.526 53.5495 203.582 54.648Z" fill="#14B4B7"/>
<path d="M180.748 56.4746L182.272 67.3686C182.424 68.458 181.657 69.474 180.568 69.6263L176.607 70.1803C175.517 70.3326 174.501 69.5659 174.349 68.4765L172.826 57.5825C172.673 56.4931 173.44 55.4771 174.529 55.3248L178.491 54.7709C179.58 54.6185 180.596 55.3852 180.748 56.4746Z" fill="#14B4B7"/>
<path d="M158.162 60.2922L160.633 71.0112C160.88 72.0831 160.205 73.1622 159.133 73.4093L155.235 74.3077C154.163 74.5548 153.084 73.88 152.837 72.8081L150.366 62.0891C150.119 61.0172 150.794 59.9381 151.866 59.691L155.764 58.7926C156.836 58.5455 157.915 59.2203 158.162 60.2922Z" fill="#14B4B7"/>
<path d="M135.996 66.0716L139.395 76.5333C139.735 77.5794 139.158 78.7135 138.111 79.0534L134.307 80.2895C133.261 80.6294 132.127 80.0516 131.787 79.0054L128.388 68.5438C128.048 67.4976 128.626 66.3635 129.672 66.0236L133.476 64.7876C134.522 64.4476 135.656 65.0255 135.996 66.0716Z" fill="#14B4B7"/>
<mask id="mask2_1_2" style="mask-type:alpha" maskUnits="userSpaceOnUse" x="321" y="82" width="158" height="230">
<path d="M333.197 101.492C405.92 143.576 455.201 221.746 456.475 311.437" stroke="#019DA1" stroke-width="45"/>
</mask>
<g mask="url(#mask2_1_2)">
<path d="M474.415 308.234L463.426 308.729C462.327 308.778 461.388 307.92 461.338 306.821L461.158 302.825C461.109 301.726 461.967 300.786 463.066 300.737L474.055 300.242C475.154 300.192 476.093 301.051 476.143 302.15L476.323 306.146C476.372 307.245 475.514 308.184 474.415 308.234Z" fill="#932131"/>
<path d="M472.732 285.389L461.829 286.844C460.738 286.989 459.727 286.216 459.582 285.126L459.053 281.161C458.907 280.07 459.68 279.059 460.771 278.914L471.674 277.459C472.764 277.314 473.775 278.087 473.921 279.177L474.45 283.142C474.595 284.232 473.822 285.243 472.732 285.389Z" fill="#932131"/>
<path d="M469.056 262.779L458.322 265.182C457.249 265.422 456.174 264.741 455.933 263.667L455.059 259.764C454.819 258.691 455.501 257.616 456.574 257.375L467.308 254.972C468.382 254.732 469.457 255.413 469.697 256.487L470.571 260.39C470.811 261.464 470.13 262.538 469.056 262.779Z" fill="#932131"/>
<path d="M463.416 240.577L452.933 243.911C451.885 244.244 450.755 243.659 450.421 242.611L449.209 238.799C448.876 237.75 449.461 236.62 450.509 236.287L460.992 232.953C462.04 232.62 463.171 233.205 463.504 234.253L464.716 238.065C465.05 239.113 464.465 240.244 463.416 240.577Z" fill="#932131"/>
<path d="M455.855 218.954L445.704 223.192C444.689 223.616 443.512 223.132 443.088 222.117L441.547 218.426C441.123 217.411 441.607 216.233 442.622 215.81L452.773 211.572C453.788 211.148 454.965 211.632 455.389 212.647L456.93 216.338C457.354 217.353 456.87 218.53 455.855 218.954Z" fill="#932131"/>
<path d="M446.431 198.076L436.69 203.186C435.716 203.697 434.501 203.318 433.99 202.344L432.132 198.801C431.621 197.827 432 196.612 432.974 196.101L442.715 190.991C443.689 190.48 444.904 190.859 445.415 191.833L447.273 195.376C447.784 196.35 447.405 197.565 446.431 198.076Z" fill="#932131"/>
<path d="M435.216 178.102L425.959 184.045C425.034 184.639 423.79 184.368 423.196 183.442L421.035 180.076C420.441 179.151 420.712 177.907 421.637 177.313L430.894 171.37C431.82 170.776 433.063 171.047 433.658 171.973L435.819 175.339C436.413 176.264 436.142 177.508 435.216 178.102Z" fill="#932131"/>
<path d="M422.296 159.186L413.595 165.916C412.725 166.589 411.463 166.428 410.79 165.558L408.342 162.394C407.669 161.524 407.831 160.261 408.701 159.588L417.402 152.858C418.272 152.185 419.535 152.347 420.208 153.217L422.655 156.381C423.328 157.251 423.166 158.513 422.296 159.186Z" fill="#932131"/>
<path d="M407.771 141.474L399.692 148.939C398.884 149.686 397.612 149.636 396.866 148.828L394.151 145.89C393.405 145.082 393.455 143.81 394.263 143.064L402.342 135.598C403.15 134.852 404.421 134.902 405.168 135.71L407.883 138.648C408.629 139.456 408.579 140.727 407.771 141.474Z" fill="#932131"/>
<path d="M391.751 125.1L384.357 133.244C383.617 134.058 382.346 134.12 381.532 133.38L378.57 130.691C377.756 129.952 377.695 128.68 378.434 127.866L385.829 119.722C386.568 118.908 387.84 118.847 388.654 119.586L391.615 122.275C392.43 123.015 392.491 124.286 391.751 125.1Z" fill="#932131"/>
<path d="M374.361 110.191L367.707 118.951C367.042 119.827 365.781 119.999 364.905 119.333L361.719 116.914C360.843 116.249 360.671 114.988 361.336 114.112L367.99 105.352C368.655 104.476 369.917 104.304 370.792 104.969L373.978 107.389C374.854 108.054 375.026 109.315 374.361 110.191Z" fill="#932131"/>
<path d="M355.732 96.861L349.87 106.169C349.284 107.1 348.043 107.382 347.112 106.796L343.727 104.664C342.797 104.078 342.515 102.837 343.101 101.906L348.962 92.5979C349.549 91.6671 350.79 91.3852 351.721 91.9713L355.105 94.1028C356.036 94.689 356.318 95.9301 355.732 96.861Z" fill="#932131"/>
<path d="M336.008 85.212L330.984 94.9974C330.481 95.9759 329.269 96.3654 328.291 95.8629L324.733 94.0358C323.754 93.5333 323.364 92.3216 323.867 91.3431L328.892 81.5577C329.394 80.5792 330.606 80.1897 331.584 80.6921L335.143 82.5193C336.121 83.0218 336.511 84.2335 336.008 85.212Z" fill="#932131"/>
</g>
<path d="M461.707 399.606L432.142 390.284C431.093 389.953 430.505 388.824 430.836 387.775L432.64 382.053C432.971 381.004 434.1 380.416 435.149 380.747L464.714 390.069C465.763 390.4 466.351 391.529 466.02 392.578L464.216 398.3C463.885 399.349 462.756 399.937 461.707 399.606Z" fill="#14B4B7"/>
<path d="M473.88 285.303L443.145 289.349C442.055 289.492 441.045 288.718 440.902 287.627L440.118 281.678C439.975 280.588 440.75 279.578 441.84 279.434L472.575 275.388C473.666 275.245 474.675 276.019 474.819 277.11L475.602 283.059C475.746 284.149 474.971 285.159 473.88 285.303Z" fill="#14B4B7"/>
<path d="M436.606 176.564L410.461 193.22C409.533 193.811 408.29 193.536 407.699 192.608L404.476 187.548C403.885 186.62 404.16 185.377 405.088 184.786L431.233 168.13C432.161 167.539 433.403 167.814 433.994 168.742L437.218 173.803C437.809 174.73 437.534 175.973 436.606 176.564Z" fill="#14B4B7"/>
<path d="M356.869 93.7661L340.213 119.911C339.622 120.839 338.379 121.114 337.451 120.523L332.391 117.3C331.463 116.709 331.188 115.466 331.779 114.538L348.435 88.3931C349.026 87.4654 350.269 87.1899 351.196 87.7809L356.257 91.0047C357.185 91.5958 357.46 92.8384 356.869 93.7661Z" fill="#14B4B7"/>
<path d="M249.611 52.424L245.565 83.1588C245.421 84.2494 244.411 85.0243 243.321 84.8807L237.372 84.0975C236.281 83.9539 235.507 82.9442 235.65 81.8536L239.696 51.1188C239.84 50.0282 240.85 49.2534 241.94 49.3969L247.889 50.1801C248.98 50.3237 249.755 51.3335 249.611 52.424Z" fill="#14B4B7"/>
<path d="M134.93 60.2847L144.252 89.8499C144.583 90.899 143.995 92.0279 142.946 92.3587L137.224 94.163C136.175 94.4937 135.046 93.906 134.715 92.8569L125.393 63.2917C125.062 62.2426 125.65 61.1136 126.699 60.7829L132.421 58.9786C133.47 58.6479 134.599 59.2356 134.93 60.2847Z" fill="#14B4B7"/>
<mask id="mask3_1_2" style="mask-type:alpha" maskUnits="userSpaceOnUse" x="321" y="82" width="158" height="230">
<path d="M333.197 101.492C405.92 143.576 455.201 221.746 456.475 311.437" stroke="#019DA1" stroke-width="45"/>
</mask>
<g mask="url(#mask3_1_2)">
<path d="M473.88 285.303L443.145 289.349C442.055 289.492 441.045 288.718 440.902 287.627L440.118 281.678C439.975 280.588 440.75 279.578 441.84 279.434L472.575 275.388C473.666 275.245 474.675 276.019 474.819 277.11L475.602 283.059C475.746 284.149 474.971 285.159 473.88 285.303Z" fill="#932131"/>
<path d="M436.606 176.564L410.461 193.22C409.533 193.811 408.29 193.536 407.699 192.608L404.476 187.548C403.885 186.62 404.16 185.377 405.088 184.786L431.233 168.13C432.161 167.539 433.403 167.814 433.994 168.742L437.218 173.803C437.809 174.73 437.534 175.973 436.606 176.564Z" fill="#932131"/>
<path d="M356.869 93.7661L340.213 119.911C339.622 120.839 338.379 121.114 337.451 120.523L332.391 117.3C331.463 116.709 331.188 115.466 331.779 114.538L348.435 88.3931C349.026 87.4654 350.269 87.1899 351.196 87.7809L356.257 91.0047C357.185 91.5958 357.46 92.8384 356.869 93.7661Z" fill="#932131"/>
</g>
<path d="M255.626 300.217C247.683 275.026 220.823 261.045 195.633 268.987C170.442 276.93 156.459 303.789 164.402 328.98C172.345 354.171 199.205 368.153 224.395 360.21C249.586 352.268 263.569 325.408 255.626 300.217Z" stroke="#019DA1" stroke-opacity="0.25" stroke-width="20" stroke-miterlimit="10"/>
<path d="M245.935 303.273C239.68 283.434 218.526 272.422 198.687 278.677C178.848 284.932 167.836 306.086 174.091 325.925C180.347 345.764 201.5 356.776 221.339 350.521C241.178 344.266 252.19 323.112 245.935 303.273Z" stroke="#019DA1" stroke-width="4" stroke-miterlimit="10"/>
<path d="M186.312 318.968C184.121 305.885 192.95 293.503 206.032 291.311C219.115 289.12 231.498 297.949 233.69 311.032C235.881 324.114 227.051 336.497 213.969 338.688C200.886 340.879 188.504 332.05 186.312 318.968Z" fill="#14B4B7"/>
<path d="M406.535 346.271C407.178 342.937 408.706 340.431 401.585 339.186C394.464 337.941 253.595 316.747 253.595 316.747L251.912 328.33C251.912 328.33 393.464 350.315 399.791 351.097C406.117 351.88 405.929 349.417 406.535 346.271Z" fill="#14B4B7"/>
</g>
</g>
</g>
<defs>
<clipPath id="clip0_1_2">
<rect width="550" height="550" fill="white"/>
</clipPath>
</defs>
</svg>
